<?xml version="1.0" encoding="UTF-8"?>
<svg width="1200pt" height="1200pt" version="1.1" viewBox="0 0 1200 1200" xmlns="http://www.w3.org/2000/svg">
 <path d="m62.062 956.25 522 215.62h8.4375c2.3672 0.27734 4.7578 0.27734 7.125 0 2.2422 0.27734 4.5078 0.27734 6.75 0 2.1094-0.45312 4.1797-1.0781 6.1875-1.875h2.25l523.12-213.75c6.8789-2.8242 12.762-7.6328 16.898-13.809 4.1406-6.1758 6.3516-13.445 6.3516-20.879v-648.38c0.09375-1.5 0.09375-3 0-4.5 0.17969-1.1797 0.17969-2.3828 0-3.5625-0.22266-1.2109-0.53906-2.3984-0.9375-3.5625-0.48047-1.4062-1.043-2.7852-1.6875-4.125-0.69922-1.5-1.5156-2.9414-2.4375-4.3125-1.2891-2.0352-2.8008-3.918-4.5-5.625-1.5156-1.5742-3.2148-2.9609-5.0625-4.125l-2.625-1.5-3-1.5-185.06-75-170.25-69.188-171.56-69.375c-9.0195-3.6484-19.105-3.6484-28.125 0l-523.69 211.69-3 1.5-3 1.6875c-4.4336 2.7773-8.2109 6.4883-11.062 10.875-0.92188 1.3711-1.7383 2.8125-2.4375 4.3125-0.70312 1.4648-1.332 2.9688-1.875 4.5-0.085938 1.1875-0.085938 2.375 0 3.5625-0.17969 1.1797-0.17969 2.3828 0 3.5625-0.09375 1.5-0.09375 3 0 4.5v649.12c-0.066406 7.1133 1.8867 14.098 5.6406 20.137 3.75 6.043 9.1445 10.895 15.547 13.988zm876.56-717.38 85.875 34.688-424.5 175.31-87.75-36.375zm-338.62-136.88 71.625 29.25-396.38 161.25-22.312 9-3.75 1.6875-73.688-29.625zm-486.19 227.25 115.69 47.812v253.88c0 7.4336 2.2109 14.703 6.3516 20.879 4.1367 6.1758 10.02 10.984 16.898 13.809l133.69 55.125c4.5195 1.8555 9.3633 2.8125 14.25 2.8125h5.4375c3.6445-0.51562 7.1875-1.5898 10.5-3.1875 1.7227-0.75391 3.3594-1.6953 4.875-2.8125 10.406-6.9414 16.664-18.617 16.688-31.125v-223.31l124.31 51.375v567.94l-448.69-185.44z"/>
</svg>
